<svg width="155" height="155" viewBox="0 0 155 155" fill="none" xmlns="http://www.w3.org/2000/svg">
<g filter="url(#filter0_d_103_225)">
<rect x="55.188" y="29" width="63" height="62" rx="5" transform="rotate(15.1351 55.188 29)" fill="white" shape-rendering="crispEdges"/>
<path d="M86.5864 67.7566C85.9681 70.0425 84.4671 71.9891 82.4136 73.1683C80.3601 74.3475 77.9222 74.6626 75.6363 74.0443C73.3505 73.426 71.4038 71.925 70.2247 69.8715C69.0455 67.8179 68.7304 65.3801 69.3487 63.0942L72.6124 51.0278C73.2307 48.7419 74.7317 46.7953 76.7852 45.6161C78.8388 44.437 81.2766 44.1219 83.5625 44.7401C85.8483 45.3584 87.795 46.8594 88.9741 48.913C90.1533 50.9665 90.4684 53.4044 89.8501 55.6902L86.5864 67.7566Z" stroke="url(#paint0_linear_103_225)" stroke-width="3" stroke-linecap="round" stroke-linejoin="round"/>
<path d="M94.739 71.8117C94.1922 73.8515 93.2478 75.7632 91.9601 77.4371C90.6724 79.1109 89.0668 80.5139 87.2354 81.5655C85.404 82.6172 83.3829 83.2967 81.2881 83.565C79.1934 83.8334 77.0663 83.6854 75.0289 83.1295L71.5814 82.197C69.5415 81.6501 67.6298 80.7057 65.956 79.418C64.2821 78.1303 62.8791 76.5247 61.8275 74.6933C60.7759 72.8619 60.0964 70.8408 59.828 68.746C59.5596 66.6513 59.7076 64.5242 60.2636 62.4868M73.3051 82.6632L71.4402 89.5583" stroke="url(#paint1_linear_103_225)" stroke-width="3" stroke-linecap="round" stroke-linejoin="round"/>
</g>
<defs>
<filter id="filter0_d_103_225" x="-1" y="-1" width="157.003" height="156.298" filterUnits="userSpaceOnUse" color-interpolation-filters="sRGB">
<feFlood flood-opacity="0" result="BackgroundImageFix"/>
<feColorMatrix in="SourceAlpha" type="matrix" values="0 0 0 0 0 0 0 0 0 0 0 0 0 0 0 0 0 0 127 0" result="hardAlpha"/>
<feOffset dy="10"/>
<feGaussianBlur stdDeviation="20"/>
<feComposite in2="hardAlpha" operator="out"/>
<feColorMatrix type="matrix" values="0 0 0 0 0.604167 0 0 0 0 0.58151 0 0 0 0 0.58151 0 0 0 0.25 0"/>
<feBlend mode="normal" in2="BackgroundImageFix" result="effect1_dropShadow_103_225"/>
<feBlend mode="normal" in="SourceGraphic" in2="effect1_dropShadow_103_225" result="shape"/>
</filter>
<linearGradient id="paint0_linear_103_225" x1="83.5625" y1="44.7401" x2="75.6363" y2="74.0443" gradientUnits="userSpaceOnUse">
<stop stop-color="#7A3199"/>
<stop offset="1" stop-color="#161033"/>
</linearGradient>
<linearGradient id="paint1_linear_103_225" x1="77.5013" y1="67.1493" x2="71.4402" y2="89.5583" gradientUnits="userSpaceOnUse">
<stop stop-color="#7A3199"/>
<stop offset="1" stop-color="#161033"/>
</linearGradient>
</defs>
</svg>
